<svg height="64" viewBox="0 0 64 64" width="64" xmlns="http://www.w3.org/2000/svg"><g fill="none" fill-rule="evenodd"><path d="m17.0520382 14.5226009h14v44.0022704c0 3.8647394-3.1418733 6.9977296-7 6.9977296-3.8659932 0-7-3.1326231-7-6.9977296z" fill="#979797" transform="matrix(.70710678 .70710678 -.70710678 .70710678 35.345202 -5.284867)"/><path d="m17.527 36.548h18v2h-18z" fill="#5ea7ff" transform="matrix(.70710678 .70710678 -.70710678 .70710678 34.320024 -7.759867)"/><circle cx="49.154" cy="14.92" fill="#595959" r="14" transform="matrix(.70710678 .70710678 -.70710678 .70710678 24.946906 -30.38716)"/><g fill="#979797"><path d="m44 5h2v2h-2z"/><path d="m49 5h2v2h-2z"/><path d="m54 5h2v2h-2z"/><path d="m49 10h2v2h-2z"/><path d="m54 10h2v2h-2z"/><path d="m59 10h2v2h-2z"/><path d="m44 15h2v2h-2z"/><path d="m39 10h2v2h-2z"/><path d="m44 10h2v2h-2z"/></g><rect fill="#e43535" height="17" rx="2" transform="matrix(.70710678 .70710678 -.70710678 .70710678 31.537044 -14.47716)" width="34" x="16.244" y="22.33"/><path d="m24.3995526 27.4963492c.1000005.1466674.15.3433321.15.59 0 .5800029-.3166635 1.4733273-.95 2.68-.6600033 1.2733397-1.1999979 1.91-1.62 1.91-.1066672 0-.1866664-.0599994-.24-.18-.0200001.1533341-.03.3466655-.03.58 0 .400002.0233331.8599974.07 1.38 0 .0466669.0166665.1233328.05.23s.05.1866664.05.24c0 .1266673-.0866658.2333329-.26.32-.0800004.0400002-.186666.06-.32.06-.2200011 0-.4266657-.0499995-.62-.15-.2200011-.1066672-.3466665-.2466658-.38-.42-.0066667-.0466669-.01-.0866665-.01-.12 0-.1000005.0349997-.1916663.105-.275.0700004-.0833338.105-.1383332.105-.165l-.18-6.48c0-.0200001-.0099999-.0599997-.03-.12s-.03-.1066665-.03-.14c0-.1200006.0866658-.213333.26-.28.133334-.0533336.2733326-.08.42-.08.0466669 0 .2333317.0199998.56.06.0400002 0 .2383316-.071666.595-.215.3566685-.1433341.6716653-.215.945-.215.533336 0 .9866648.2633307 1.36.79zm-1.49.4c-.1600008 0-.3649987.0849991-.615.255-.2500012.1700008-.4683324.3649989-.655.585l.04 2.3c.2933348-.2200011.611665-.6616634.955-1.325.3433351-.6633367.515-1.1683316.515-1.515 0-.200001-.0799992-.3-.24-.3zm7.97 6.5c.0066667.0400002.01.0766665.01.11 0 .200001-.1166655.3683326-.35.505-.2333345.1366673-.4766654.205-.73.205-.1533341 0-.2766662-.0299997-.37-.09-.066667-.0400002-.1249997-.1183328-.175-.235-.0500002-.1166673-.1049997-.1949998-.165-.235l-2.21-1.48.09.92c.0066667.0466669.0583329.1433326.155.29.0966672.1466674.145.2699995.145.37 0 .1466674-.0933324.2833327-.28.41-.1133339.0800004-.2566658.12-.43.12-.2466679 0-.4766656-.066666-.69-.2-.2333345-.133334-.3733331-.3033323-.42-.51-.0066667-.0400002-.01-.0733332-.01-.1 0-.0933338.0449996-.1749997.135-.245.0900005-.0700004.135-.1349997.135-.195l-.32-5.7c-.0066667-.0866671-.043333-.201666-.11-.345-.066667-.1433341-.1-.248333-.1-.315 0-.1733342.1133322-.3133328.34-.42.1866676-.0933338.3766657-.14.57-.14.1266673 0 .2366662.0183331.33.055.0933338.0366668.1566665.0933329.19.17.0333335.076667.0733331.115.12.115.0066667.0066667.209998-.0666659.61-.22.466669-.1733342.8766649-.26 1.23-.26.5133359 0 .9266651.1799982 1.24.54.0866671.1000005.13.2399991.13.42 0 .4866691-.2799972 1.1733289-.84 2.06-.533336.8333375-1.0833305 1.4999975-1.65 2l2.58 1.8c.0066667.0066667.1733317.0866659.5.24.1866676.0866671.2999998.2066659.34.36zm-2.68-6.21c-.1466674 0-.3799984.1399986-.7.42-.066667.0533336-.3133312.2833313-.74.69l-.02 1.79c.4133354-.4533356.786665-.9583306 1.12-1.515.333335-.5566695.5-.9549988.5-1.195 0-.1266673-.0533328-.19-.16-.19zm7.02-.15c-.1533341.1266673-.3499988.19-.59.19-.1000005 0-.216666-.0099999-.35-.03-.1933343.0600003-.3666659.1199997-.52.18-.3733352.1400007-.6199994.2599995-.74.36-.0400002.6933368-.0400002 1.4866622 0 2.38.0400002-.0266668.1399992-.0533332.3-.08.0800004-.1400007.2166657-.21.41-.21s.4183321.0933324.675.28c.256668.1866676.385.3699991.385.55 0 .0466669-.0099999.0933331-.03.14-.0800004.200001-.2033325.3266664-.37.38-.1000005.0333335-.2466657.0416667-.44.025-.1933343-.0166668-.3166664-.0116668-.37.015-.1533341.0733337-.3399989.1599995-.56.26 0 .600003.0199998.9866658.06 1.16.2800014-.066667.5133324-.1466662.7-.24.0333335-.0466669.0666665-.0899998.1-.13.066667-.0733337.1866658-.1033334.36-.09.1866676.0133334.379999.119999.58.32s.3.4033323.3.61c0 .1800009-.0766659.3133329-.23.4s-.4099982.1166668-.77.09l-.94.47c-.0400002.0200001-.126666.0866661-.26.2-.1000005.0866671-.1899996.13-.27.13-.0266668 0-.0566665-.0033333-.09-.01-.3533351-.1066672-.6733319-.3833311-.96-.83-.0200001-.0333335-.03-.0733331-.03-.12 0-.0200001.0366663-.1533321.11-.4-.0733337-1.9400097-.0866669-4.0066557-.04-6.2-.0466669-.066667-.07-.133333-.07-.2 0-.2200011.2033313-.3599997.61-.42.0866671-.0133334.196666.0099997.33.07.0866671.0466669.1699996.0899998.25.13l1.2-.38c.0266668-.0066667.1033327-.0466663.23-.12.0866671-.0533336.1866661-.08.3-.08.0533336 0 .1166663.0066666.19.02.1466674.0266668.291666.1416656.435.345.1433341.2033343.215.3949991.215.575 0 .1133339-.0366663.1999997-.11.26zm4.92 5.36c0 .5200026-.1649983.974998-.495 1.365-.3300016.3900019-.7383309.585-1.225.585-.9800049 0-1.6999977-.466662-2.16-1.4-.5000025-.3266683-.75-.6033322-.75-.83 0-.1133339.0699993-.2066663.21-.28.2733347-.1466674.5233322-.22.75-.22.4933358 0 .8233325.2933304.99.88.0800004.1600008.1633329.3199992.25.48s.2033326.24.35.24c.3933353 0 .59-.2799972.59-.84 0-.5000025-.0899991-.8366658-.27-1.01-.0800004-.0733337-.3999972-.2266655-.96-.46-.4466689-.1866676-.8066653-.5066644-1.08-.96-.2466679-.4133354-.3733333-.8433311-.38-1.29-.0066667-.7200036.1733315-1.3599972.54-1.92.3866686-.600003.8666638-.9 1.44-.9.66667 0 1.1533318.266664 1.46.8.200001.333335.3133332.7466642.34 1.24.0733337.2533346.11.4833323.11.69 0 .133334-.0166665.2433329-.05.33-.1000005.2466679-.2966652.37-.59.37-.2200011 0-.4199991-.0799992-.6-.24-.200001-.1733342-.3233331-.4166651-.37-.73-.0200001-.1066672.0016664-.2133328.065-.32.0633337-.1066672.095-.1666666.095-.18s-.0066666-.0266666-.02-.04c.0066667-.0333335.01-.0666665.01-.1 0-.200001-.1166655-.2933334-.35-.28-.2266678.0133334-.4033327.1633319-.53.45-.1133339.2466679-.1633334.5299984-.15.85.0200001.5666695.3933297 1.0199983 1.12 1.36.5733362.266668.9699989.5299987 1.19.79.3133349.3733352.47.8966633.47 1.57zm5.32 0c0 .5200026-.1649983.974998-.495 1.365-.3300016.3900019-.7383309.585-1.225.585-.9800049 0-1.6999977-.466662-2.16-1.4-.5000025-.3266683-.75-.6033322-.75-.83 0-.1133339.0699993-.2066663.21-.28.2733347-.1466674.5233322-.22.75-.22.4933358 0 .8233325.2933304.99.88.0800004.1600008.1633329.3199992.25.48s.2033326.24.35.24c.3933353 0 .59-.2799972.59-.84 0-.5000025-.0899991-.8366658-.27-1.01-.0800004-.0733337-.3999972-.2266655-.96-.46-.4466689-.1866676-.8066653-.5066644-1.08-.96-.2466679-.4133354-.3733333-.8433311-.38-1.29-.0066667-.7200036.1733315-1.3599972.54-1.92.3866686-.600003.8666638-.9 1.44-.9.66667 0 1.1533318.266664 1.46.8.200001.333335.3133332.7466642.34 1.24.0733337.2533346.11.4833323.11.69 0 .133334-.0166665.2433329-.05.33-.1000005.2466679-.2966652.37-.59.37-.2200011 0-.4199991-.0799992-.6-.24-.200001-.1733342-.3233331-.4166651-.37-.73-.0200001-.1066672.0016664-.2133328.065-.32.0633337-.1066672.095-.1666666.095-.18s-.0066666-.0266666-.02-.04c.0066667-.0333335.01-.0666665.01-.1 0-.200001-.1166655-.2933334-.35-.28-.2266678.0133334-.4033327.1633319-.53.45-.1133339.2466679-.1633334.5299984-.15.85.0200001.5666695.3933297 1.0199983 1.12 1.36.5733362.266668.9699989.5299987 1.19.79.3133349.3733352.47.8966633.47 1.57z" fill="#fff" transform="matrix(.70710678 .70710678 -.70710678 .70710678 31.580844 -14.140901)"/></g></svg>